# xmcd CD database file
#
# Track frame offsets:
#	150
#	34102
#	56147
#	75007
#	98605
#	122250
#	127525
#	162595
#
# Disc length: 2721 seconds
#
# Revision: 5
# Processed by: cddbd v1.5PL3 Copyright (c) Steve Scherf et al.
# Submitted via: CDex 1.50beta10
#
DISCID=4e0a9f08
DTITLE=中島みゆき - 生きていてもいいですか
DYEAR=1900
DGENRE=Folk
TTITLE0=うらみ・ます
TTITLE1=泣きたい夜に
TTITLE2=キツネ狩りの歌
TTITLE3=蕎麦屋
TTITLE4=舟を出すのなら九月
TTITLE5=_
TTITLE6=エレーン
TTITLE7=異国
EXTD=
EXTT0=
EXTT1=
EXTT2=
EXTT3=
EXTT4=
EXTT5=
EXTT6=
EXTT7=
PLAYORDER=
